/* XPM */
static char * glider2_xpm[] = {
"32 32 3 1",
" 	c None",
".	c #000000",
"+	c #020202",
"                                ",
"                                ",
"                                ",
"                                ",
"                                ",
"             ......             ",
"          ............          ",
"         ..............         ",
"        .....      .....        ",
"          .          .          ",
"                                ",
"      ....             ...      ",
"    .......           ......    ",
"   .........         ........   ",
" ...... .....       ..........  ",
".....    .....     .....   .....",
".... ++   .....   .....  .  ....",
"...  ..    ...........   ..  ...",
"    ...   ...........    ...  . ",
"    ...  ...........     ...    ",
"     ...  ... .....     ...     ",
"     ...  . .  ...      ...     ",
"     ....              ....     ",
"      ....            ....      ",
"       ....          ....       ",
"        .....      .....        ",
"         ..............         ",
"          ............          ",
"             ......             ",
"                                ",
"                                ",
"                                "};
