/* XPM */
static char * obst_group_light_xpm[] = {
"32 32 2 1",
" 	c None",
".	c #000000",
"                                ",
"                                ",
"                                ",
"                                ",
"                                ",
"                                ",
"                                ",
"                                ",
"            .     .             ",
"           ...   ...            ",
"           . .   . .            ",
"           . .   . .            ",
"          .. .. .. ..           ",
"          .   . .   .           ",
"          .   . .   .           ",
"         ..   ...   ..          ",
"         .     .     .          ",
"         .     .     .          ",
"        ..    ...    ..         ",
"        .     . .     .         ",
"        .     . .     .         ",
"       ..    .. .     .         ",
"       .     .  ..    ..        ",
"       .     .   .     .        ",
"      ..    ..   ..    ..       ",
"      .     .     .     .       ",
"      .     .     .     .       ",
"     ..    .. ... ..    ..      ",
"     .     .  ...  .     .      ",
"     .     .  ...  .     .      ",
"                                ",
"                                "};
