/* XPM */
static char *thermal[]={
"32 32 4 1",
"# c None",
". c None",
"a c #000000",
"b c #ffff00",
"................................",
"................................",
"..#########################.....",
"..##############################",
"..#######aaaaaa#################",
"..#######aabbbaaaaaaa###########",
"..#######aabbbbbbbbbaaaaaa######",
"..#######aabbbbbbbbbbbbbbbaa####",
"..#######aaabbbbbbbbbbbbaaa#####",
"..########aabbbbbbbbbbaaa#######",
"..########aabbbbbbbbaaa#########",
"..########aabbbbbbaaa###########",
"..########aabbbbaaa#############",
"..########aaabaaa###############",
"..#########aaaa#################",
"..#########aa###################",
"..#########aa###################",
"..#########aa###################",
"..#########aaa##################",
"..##########aa##################",
"..##########aa##################",
"..##########aa##################",
"..##########aa##################",
"..###########aa#################",
"..###########aa#################",
"..###########aa#################",
"..###########aa#################",
"..###########aa#################",
"..############aa################",
"..############aa################",
"..############aa################",
".......#########################"};
