/* XPM */                           
static char * nav_xpm[] = {         
"32 32 3 1",                        
"       c None",                    
".      c None",          
"x      c #000000",                 
"                                ", 
"                                ", 
"                                ", 
"                                ", 
"  ......xxxxxxxxxxxxxxxx......  ", 
"  ......xxxxxxxxxxxxxxxx......  ", 
"  ..   xx              xx   ..  ", 
"  ..   xx              xx   ..  ", 
"  ..  xx                xx  ..  ", 
"  ..  xx                xx  ..  ", 
"  .. xx                  xx ..  ", 
"  .. xx                  xx ..  ", 
"  ..xx                    xx..  ", 
"  ..xx                    xx..  ", 
"  .xx          xx          xx.  ", 
"  .xx         xxxx         xx.  ", 
"  ..xx         xx         xx..  ", 
"  ..xx                    xx..  ", 
"  .. xx                  xx ..  ", 
"  .. xx                  xx ..  ", 
"  ..  xx                xx  ..  ", 
"  ..  xx                xx  ..  ", 
"  ..   xx              xx   ..  ", 
"  ..   xx              xx   ..  ", 
"  ......xxxxxxxxxxxxxxxx......  ", 
"  ......xxxxxxxxxxxxxxxx......  ", 
"                                ", 
"                                ", 
"                                ", 
"                                ", 
"                                ", 
"                                "};