/* XPM */
static char * nav_xpm[] = {
"32 33 2 1",
" 	c None",
".	c #000000",
"                                ",
"                                ",
"                                ",
"                                ",
"                                ",
"     ...                ...     ",
"    ......            ......    ",
"    ........................    ",
"   .......            .......   ",
"   ......              ......   ",
"  .......              .......  ",
"  ......                ......  ",
" ......                  ...... ",
" ......                  ...... ",
" .....        ....        ..... ",
"  .....       ....       .....  ",
"      .       ....       .      ",
"       .      ....      .       ",
"       .                .       ",
"        .              .        ",
"         .            .         ",
"         .            .         ",
"          .          .          ",
"          .          .          ",
"          ............          ",
"          ............          ",
"          ............          ",
"          ............          ",
"          ............          ",
"          ............          ",
"                                ",
"                                ",
"                                "};
