/* XPM */
static char*ambheliport_small[]={
"16 16 3 1",
"# c #000000",
". c None",
"a c #ffffff",
"................",
"................",
"................",
"...##########...",
"...##########...",
"...##aa##aa##...",
"...##aa##aa##...",
"...##aaaaaa##...",
"...##aaaaaa##...",
"...##aa##aa##...",
"...##aa##aa##...",
"...##aa##aa##...",
"...##########...",
"...##########...",
"................",
"................"};
