/* XPM */                           
static char * nav_xpm[] = {         
"16 16 2 1",                        
"       c None",                    
"x      c #000000",                 
"                ",
"                ", 
"                ", 
"    x x  x      ", 
"    x  x  x  x  ", 
"  x x      x    ", 
" x     xx    x  ", 
"   x  x  x  x x ", 
" x     xx    x  ", 
"  x x      x    ", 
"    x  x  x  x  ", 
"      x   x     ", 
"                ", 
"                ", 
"                ", 
"                "};

