/* XPM */
static char * klein_village_xpm[] = {
"16 16 3 1",
" 	c None",
".	c #000000",
"+	c #FF8040",
"     ......     ",
"    .++++++.    ",
"  ..++++++++..  ",
"  .++++++++++.  ",
" .++++++++++++. ",
".++++++++++++++.",
".++++++++++++++.",
".++++++++++++++.",
".++++++++++++++.",
".++++++++++++++.",
".++++++++++++++.",
" .++++++++++++. ",
"  .++++++++++.  ",
"  ..++++++++..  ",
"    .++++++.    ",
"     ......     "};
