/* XPM */
static char * luft_xpm[] = {
"32 32 6 1",
" 	c None",
".	c #0022FF",
"+	c #FFFFFF",
"@	c #15218E",
"#	c #890209",
"$	c #F49098",
".++..++.@                       ",
".++..++..@                      ",
".++..++..@                      ",
".++..++..+@                     ",
".++..++..+@@                    ",
".++..++..++@@@                  ",
".++..++..++..@@                 ",
".++..++..++..+@                 ",
".++..++..++..+@                 ",
".++..++..++..+@                 ",
".++..++..++..+@                 ",
".++..++..++..@@                 ",
".++..++..++.@@                  ",
".++..++..++.@                   ",
".++..++..+@@@                   ",
".@@@@@@@@@                      ",
"@@                              ",
"@                               ",
"    ############################",
"    ############################",
"    ##$$$$$$$$$$$$$$$$$$$$$$$$$$",
"    ##$$$$$$$$$$$$$$$$$$$$$$$$$$",
"    ##$$$$$$$$$$$$$$$$$$$$$$$$$$",
"    ##$$$$$$$$$$$$$$$$$$$$$$$$$$",
"    ##$$$$$$$$$$$$$$$$$$$$$$$$$$",
"    ##$$$$$$$$$$$$$$$$$$$$$$$$$$",
"    ##$$$$$$$$$$$$$$$$$$$$$$$$$$",
"    ##$$$$$$$$$$$$$$$$$$$$$$$$$$",
"    ##$$$$$$$$$$$$$$$$$$$$$$$$$$",
"    ##$$$$$$$$$$$$$$$$$$$$$$$$$$",
"    ##$$$$$$$$$$$$$$$$$$$$$$$$$$",
"    ##$$$$$$$$$$$$$$$$$$$$$$$$$$"};
