/* XPM */
static char*glider[]={
"32 32 3 1",
"# c #000000",
". c None",
"a c #ff0000",
"................................",
"................................",
"................................",
"................................",
"................................",
"............########............",
"..........############..........",
".........##############.........",
"........#####......#####........",
"..........#..........#..........",
"................................",
"......aaaa.............aaa......",
"....aaaaaaa...........aaaaaa....",
"...aaaaaaaaa.........aaaaaaaa...",
".aaaaaa.aaaaa.......aaaaaaaaaa..",
"aaaaa....aaaaa.....aaaaa...aaaaa",
"aaaa..#...aaaaa...aaaaa..#..aaaa",
"aaa..##....aaaaaaaaaaa...##..aaa",
"....###...aaaaaaaaaaa....###..a.",
"....###..aaaaaaaaaaa.....###....",
".....###..aaa.aaaaa.....###.....",
".....###..a.a..aaa......###.....",
".....####..............####.....",
"......####............####......",
".......####..........####.......",
"........#####......#####........",
".........##############.........",
"..........############..........",
"............########............",
"................................",
"................................",
"................................"};
