/* XPM */                           
static char * nav_xpm[] = {         
"32 32 2 1",                        
"       c None",                    
"x      c #000000",                 
"                                ", 
"                                ", 
"                                ", 
"             x  x  x            ", 
"          x          x          ", 
"        x  x  x  x  x  x        ", 
"                                ", 
"     x x  x  x  x  x  x  x      ", 
"                                ", 
"     x  x  x  x  x  x  x  x     ", 
"                                ", 
"   x  x  x  x  x  x  x  x  x    ", 
"                                ", 
"  x  x  x  x   xx  x  x  x  x   ", 
"              xxxx              ", 
"  x x  x  x  xx  xx  x  x  x x  ", 
"              xxxx              ", 
"  x  x  x  x   xx  x  x x  x x  ", 
"                                ", 
"   x  x  x  x  x  x  x  x x x   ", 
"                                ", 
"    x  x   x   x  x  x  x  x    ", 
"                                ", 
"     x  x x  x  x  x   x  x     ", 
"                                ", 
"       x x  x  x  x  x  x       ", 
"           x          x         ", 
"             x  x  x            ", 
"                                ", 
"                                ", 
"                                ", 
"                                "};
