/* XPM */
static char * outlanding_xpm[] = {
"32 32 5 1",
" 	c None",
".	c #000000",
"+	c #FFFFFF",
"@	c #FF0000",
"#	c #00B700",
"                                ",
"        ..                      ",
"       ....                     ",
"        ..                      ",
"        ............            ",
"        ..++@@++@@+........     ",
"        ..++@@++@@++@@++@@.     ",
"        ..++@@++@@++@@++@@.     ",
"        ..++@@++@@++.......     ",
"        .............           ",
"        ..                      ",
"        ..                      ",
"        ..                      ",
"        ..                      ",
"        ..                      ",
"        ..                      ",
"        ..                      ",
"        ..                      ",
"        ..                      ",
"        ..                      ",
"        ..                      ",
"        ..                      ",
"        ..                      ",
"        ..                      ",
"        ..                      ",
"        ..                      ",
"        .. #                    ",
"      # ..##  #                 ",
"     # #..#  #                  ",
"    # ##..## ##                 ",
"    ########## #                ",
"                                "};
