/* XPM */
static char *thermal[]={
"32 32 4 1",
"# c None",
". c None",
"a c #000000",
"b c #ff9966",
"........aaaaa...................",
"........aaaaaaaaaa..............",
"........aaabbbbbaaaaa...........",
"........aaabbbbbbbbbaaaa........",
".........aaabbbbbbbbbbbaaaaa....",
".........aaabbbbbbbbbbbbbbaaaaa.",
".........aaabbbbbbbbbbbbbbbbbaaa",
".........aaabbbbbbbbbbbbbbbaaa..",
".........aaabbbbbbbbbbbbbaaa....",
"..........aaabbbbbbbbbbaaa......",
"..........aaabbbbbbbbaaa........",
"..........aaabbbbbbaaa..........",
"..........aaabbbbaaa............",
"..........aaaaaaaa..............",
"...........aaaaa................",
"...........aaa..................",
"...........aaa..................",
"...........aaa..................",
"...........aaa..................",
"............aaa.................",
"............aaa.................",
"............aaa.................",
"............aaa.................",
".............aaa................",
".............aaa................",
".............aaa................",
".............aaa................",
".............aaa................",
"..............aaa...............",
"..............aaa...............",
"..............aaa...............",
"..............aaa..............."};
