/* XPM */
static char * outlanding_small_xpm[] = {
"16 16 8 1",
" 	c None",
".	c #000000",
"+	c #808080",
"@	c #800000",
"#	c #404040",
"$	c #FFFFFF",
"%	c #FF0000",
"&	c #00B700",
"    .           ",
"    .           ",
"    .+@+@#...   ",
"    .$%$%$%$%.  ",
"    .+@+@+...   ",
"    .           ",
"    .           ",
"    .           ",
"    .           ",
"    .           ",
"    .           ",
"    .           ",
"    .           ",
"    .&          ",
"  &&.&&         ",
"  &&&&&         "};
