/* XPM */
static char * wp_small_xpm[] = {
"16 16 6 1",
" 	c None",
".	c #000000",
"+	c #FFFF00",
"@	c #00A700",
"#	c #007000",
"$	c #003800",
"                ",
"  ...           ",
"  .+@##$..      ",
"  .@+++++@$     ",
"  .#+++@$.      ",
"  .#+@$.        ",
"   .$.          ",
"   .            ",
"   .            ",
"   ..           ",
"   ..           ",
"    .           ",
"    .           ",
"    .           ",
"    ..          ",
"                "};
